<svg baseProfile="basic" xmlns="http://www.w3.org/2000/svg" xmlns:xlink="http://www.w3.org/1999/xlink" width="262" height="30"><defs><rect id="a" width="262" height="30"/></defs><clipPath id="b"><use xlink:href="#a" overflow="visible"/></clipPath><g clip-path="url(#b)"><path fill="#fff" d="M255 .879c0 4.418-3.582 8-8 8h-104l-12.167 11-11.833-11h-104c-4.418 0-8-3.582-8-8v-120c0-4.418 3.582-8 8-8h232c4.418 0 8 3.582 8 8v120z"/><path d="M247-127.121c4.418 0 8 3.582 8 8v120c0 4.418-3.582 8-8 8h-104l-12.167 11-11.833-11h-104c-4.418 0-8-3.582-8-8v-120c0-4.418 3.582-8 8-8h232m0-7h-232c-8.271 0-15 6.729-15 15v120c0 8.271 6.729 15 15 15h101.249l9.818 9.127 4.701 4.369 4.76-4.304 10.167-9.192h101.305c8.271 0 15-6.729 15-15v-120c0-8.271-6.729-15-15-15z" opacity=".3"/></g></svg>