<svg baseProfile="basic" xmlns="http://www.w3.org/2000/svg" width="169.434" height="184.777"><path d="M63.569 151.47c-8.982 0-16.289-7.307-16.289-16.289v-117.263c0-8.981 7.307-16.289 16.289-16.289h87.944c8.982 0 16.289 7.307 16.289 16.289v117.262c0 8.982-7.307 16.289-16.289 16.289h-87.944z"/><path fill="#fff" d="M151.514 3.26c8.062 0 14.659 6.596 14.659 14.658v117.262c0 8.062-6.597 14.659-14.659 14.659h-87.945c-8.062 0-14.659-6.597-14.659-14.659v-117.262c0-8.062 6.597-14.658 14.659-14.658h87.945m0-3.26h-87.945c-9.881 0-17.92 8.038-17.92 17.918v117.262c0 9.881 8.039 17.919 17.92 17.919h87.944c9.881 0 17.92-8.038 17.92-17.919v-117.262c.001-9.88-8.038-17.918-17.919-17.918z"/><rect x="63.569" y="17.918" fill="#fff" width="87.944" height="117.262"/><rect x="70.896" y="48.916" fill="#821724" width="74.012" height="8.118"/><rect x="70.896" y="61.052" fill="#821724" width="74.012" height="8.117"/><rect x="70.896" y="73.187" fill="#821724" width="74.012" height="8.119"/><rect x="70.896" y="85.323" fill="#821724" width="74.012" height="8.118"/><rect x="70.896" y="97.459" fill="#821724" width="74.012" height="8.118"/><rect x="70.896" y="109.595" fill="#821724" width="74.012" height="8.118"/><rect x="70.896" y="121.732" fill="#821724" width="74.012" height="8.117"/><rect x="70.896" y="36.779" fill="#821724" width="48.755" height="8.119"/><rect x="70.896" y="24.645" fill="#821724" width="36.646" height="8.117"/><path d="M18.852 182.68c-9.239 0-16.755-7.516-16.755-16.755v-117.262c0-9.237 7.516-16.753 16.755-16.753h87.945c9.238 0 16.754 7.516 16.754 16.753v117.262c0 9.239-7.516 16.755-16.754 16.755h-87.945z"/><path fill="#fff" d="M106.797 34.006c8.063 0 14.658 6.595 14.658 14.657v117.262c0 8.062-6.595 14.66-14.658 14.66h-87.945c-8.062 0-14.659-6.598-14.659-14.66v-117.262c0-8.062 6.597-14.657 14.659-14.657h87.945m0-4.192h-87.945c-10.395 0-18.852 8.456-18.852 18.849v117.262c0 10.395 8.457 18.852 18.852 18.852h87.945c10.395 0 18.851-8.457 18.851-18.852v-117.262c-.001-10.393-8.457-18.849-18.851-18.849z"/><rect x="18.852" y="48.663" fill="#fff" width="87.945" height="117.262"/><rect x="26.179" y="79.661" fill="#C42031" width="74.011" height="8.117"/><rect x="26.179" y="91.797" fill="#C42031" width="74.011" height="8.118"/><rect x="26.179" y="103.932" fill="#C42031" width="74.011" height="8.118"/><rect x="26.179" y="116.069" fill="#C42031" width="74.011" height="8.118"/><rect x="26.179" y="128.203" fill="#C42031" width="74.011" height="8.118"/><rect x="26.179" y="140.341" fill="#C42031" width="74.011" height="8.117"/><rect x="26.179" y="152.476" fill="#C42031" width="74.011" height="8.119"/><rect x="26.179" y="67.525" fill="#C42031" width="48.756" height="8.117"/><rect x="26.179" y="55.389" fill="#C42031" width="36.645" height="8.117"/></svg>