<svg baseProfile="basic" xmlns="http://www.w3.org/2000/svg" width="231.294" height="163.144"><path d="M81.536 160.682c-.695 0-1.411-.071-2.127-.212-.119-.024-.41-.083-1.937-.575l-.081-.025-68.033-27.21c-4.19-1.681-6.896-5.68-6.896-10.19v-108.958c0-3.646 1.802-7.043 4.82-9.089 1.825-1.234 3.952-1.886 6.153-1.886 1.402 0 2.773.264 4.075.784l64.025 25.611 64.081-25.645.072-.024c1.521-.502 1.813-.562 1.923-.584.749-.146 1.463-.218 2.147-.218s1.398.071 2.123.213c.129.025.418.085 1.939.574l.16.058 67.955 27.18c4.189 1.678 6.896 5.678 6.896 10.189v108.958c0 3.646-1.802 7.042-4.819 9.087-1.825 1.234-3.953 1.886-6.153 1.886-1.402 0-2.772-.264-4.075-.784l-64.097-25.566-64.001 25.608-.079.025c-1.534.497-1.824.556-1.934.577-.726.144-1.442.216-2.137.216z"/><path fill="#fff" d="M149.759 4.924c.553 0 1.105.061 1.652.167.264.054 1.656.502 1.656.502l67.955 27.18c3.229 1.293 5.348 4.422 5.348 7.903v108.958c0 2.826-1.4 5.465-3.738 7.049-1.43.967-3.095 1.462-4.772 1.462-1.068 0-2.141-.2-3.161-.608l-65.012-25.932-64.838 25.943s-1.4.453-1.662.506c-.546.107-1.099.166-1.652.166-.554 0-1.106-.059-1.653-.166-.263-.053-1.656-.502-1.656-.502l-67.954-27.178c-3.23-1.295-5.349-4.424-5.349-7.904v-108.958c0-2.826 1.402-5.467 3.739-7.051 1.43-.967 3.095-1.462 4.772-1.462 1.068 0 2.141.2 3.161.608l64.939 25.977 64.926-25.982s1.385-.457 1.646-.511c.548-.107 1.101-.167 1.653-.167m0-4.924c-.842 0-1.715.087-2.593.258-.252.052-.592.121-2.249.668l-.145.048-.142.057-63.095 25.25-63.11-25.245c-1.595-.638-3.273-.961-4.989-.961-2.695 0-5.299.798-7.531 2.308-3.699 2.506-5.905 6.666-5.905 11.129v108.958c0 5.522 3.313 10.419 8.44 12.475l67.958 27.179.157.062.161.052c1.661.536 1.999.604 2.201.645.89.175 1.766.262 2.62.262.855 0 1.73-.087 2.603-.259.223-.045.559-.112 2.227-.652l.159-.052.154-.062 63.012-25.213 63.185 25.203c1.591.636 3.27.959 4.985.959 2.694 0 5.298-.798 7.53-2.307 3.698-2.506 5.904-6.665 5.904-11.128v-108.958c0-5.524-3.313-10.421-8.441-12.474l-67.959-27.181-.157-.063-.162-.052c-1.651-.532-1.983-.6-2.183-.64-.92-.179-1.793-.266-2.635-.266z"/><polygon fill="#fff" points="73.023,140.21 18.543,118.419 18.543,23.013 73.023,44.808"/><polygon fill="#fff" points="144.527,118.419 90.047,140.21 90.047,44.808 144.527,23.013"/><polygon fill="#fff" points="158.271,22.937 212.751,44.728 212.751,140.134 158.271,118.339"/><polygon points="68.193,47.983 22.747,30.003 22.739,39.37 68.186,57.351"/><polygon points="68.183,62.933 22.736,44.952 22.729,54.318 68.175,72.298"/><polygon points="68.171,77.88 22.725,59.901 22.717,69.267 68.164,87.247"/><polygon points="68.161,92.829 22.714,74.851 22.706,84.218 68.153,102.196"/><polygon points="68.15,107.778 22.703,89.798 22.695,99.165 68.142,117.146"/><polygon points="68.15,122.728 22.703,104.747 22.695,114.116 68.142,132.097"/><polygon points="207.712,47.983 162.267,30.003 162.259,39.37 207.707,57.351"/><polygon points="207.703,62.933 162.255,44.952 162.248,54.318 207.695,72.298"/><polygon points="207.691,77.88 162.244,59.901 162.238,69.267 207.683,87.247"/><polygon points="207.679,92.829 162.234,74.851 162.226,84.218 207.673,102.196"/><polygon points="207.669,107.778 162.222,89.798 162.214,99.165 207.662,117.146"/><polygon points="207.669,122.728 162.222,104.747 162.214,114.116 207.662,132.097"/><polygon fill="#821724" points="94.98,47.613 140.425,29.634 140.433,39 94.988,56.979"/><polygon fill="#821724" points="94.991,62.563 140.437,44.583 140.445,53.948 94.999,71.929"/><polygon fill="#821724" points="95.002,77.511 140.449,59.53 140.455,68.897 95.01,86.878"/><path fill="#C42031" d="M128.927 94.95c-2.225.879-4.029-.215-4.029-2.439 0-2.227 1.805-4.742 4.029-5.621 2.227-.877 4.029.215 4.029 2.439.001 2.227-1.802 4.742-4.029 5.621zm-17.546 9.61c10.411 8.318 9.655-1.123 17.546-4.236 6.863-2.707 5.373 7.283 5.373 7.283l-32.238 12.721c0-.001 3.853-20.138 9.319-15.768zm25.607 1.986v-26.866l-8.061 3.18-21.491 8.479-8.061 3.18v29.555999999999997l37.612-14.84v-2.689zm0 10.748l-37.612 14.838c-1.483.586-2.687-.143-2.687-1.627v-34.928c0-1.482 1.203-3.16 2.687-3.744l37.612-14.84c1.484-.584 2.686.143 2.686 1.627v34.928c-.001 1.482-1.202 3.16-2.686 3.746z"/></svg>