<svg baseProfile="basic" xmlns="http://www.w3.org/2000/svg" width="260.028" height="141.192"><path d="M1.868 135.821v-9.517c0-1.186 0-4.795 16.05-10.645 9.118-3.323 10.589-5.716 10.589-10.158 0-.901-.174-1.099-.824-1.835-.983-1.115-2.329-2.642-3.08-6.689l-.028-.124-.179-.085c-1.749-.84-2.893-2.167-3.194-6.173l-.005-.14c0-1.831.578-3.008 1.169-3.734-.222-1.298-.591-3.601-.775-5.549-.228-2.426.54-6.395 3.455-9.597 2.029-2.229 5.904-4.886 12.841-4.886 6.936 0 10.81 2.656 12.839 4.884 2.916 3.202 3.685 7.171 3.458 9.598-.184 1.95-.553 4.252-.775 5.55.592.726 1.169 1.904 1.169 3.734l-.005.14c-.302 4.007-1.446 5.333-3.195 6.173l-.179.085-.028.124c-.75 4.047-2.097 5.574-3.08 6.689-.65.737-.824.935-.824 1.835 0 4.441 1.472 6.834 10.591 10.158 16.051 5.849 16.051 9.458 16.051 10.645v9.517h-72.041z"/><path fill="#fff" d="M37.888 68.557c12.431 0 14.762 8.967 14.437 12.439-.263 2.785-.933 6.405-.933 6.405s1.318.608 1.318 3.054c-.462 6.139-2.878 3.494-3.376 6.182-1.2 6.482-3.936 5.326-3.936 8.865 0 5.896 2.863 8.648 11.819 11.913 8.985 3.274 14.822 6.613 14.822 8.89v7.648h-68.303v-7.648c0-2.276 5.837-5.615 14.822-8.89 8.957-3.265 11.818-6.018 11.818-11.913 0-3.539-2.733-2.383-3.935-8.865-.499-2.688-2.914-.043-3.375-6.182 0-2.445 1.318-3.054 1.318-3.054s-.67-3.62-.932-6.405c-.327-3.473 2.005-12.439 14.436-12.439m0-3.737c-7.62 0-11.94 2.989-14.223 5.497-3.325 3.653-4.197 8.224-3.933 11.029.157 1.668.445 3.58.668 4.94-.633 1.059-1.071 2.447-1.071 4.168v.14l.011.14c.288 3.823 1.34 6.02 3.584 7.361.799 3.66 2.093 5.371 3.358 6.805l.35.409.007.191c0 3.188-.435 5.149-9.361 8.403-15.225 5.551-17.278 9.384-17.278 12.402v11.384h75.776v-11.384c0-3.018-2.053-6.851-17.279-12.4-8.928-3.254-9.362-5.216-9.362-8.403l.007-.191.35-.408c1.266-1.435 2.56-3.146 3.359-6.806 2.244-1.341 3.297-3.538 3.585-7.361l.011-.14v-.141c0-1.722-.438-3.109-1.071-4.168.223-1.36.511-3.272.668-4.94.263-2.809-.61-7.381-3.936-11.033-2.282-2.506-6.602-5.494-14.22-5.494z"/><path fill="#400C11" d="M28.607 136.448v-12.713c0-1.583 0-6.403 21.439-14.218 12.179-4.44 14.145-7.636 14.145-13.569 0-1.204-.233-1.468-1.101-2.453-1.313-1.489-3.111-3.529-4.114-8.934l-.037-.166-.239-.113c-2.336-1.123-3.864-2.894-4.266-8.246l-.007-.093v-.093c0-2.446.771-4.019 1.562-4.989-.296-1.734-.79-4.809-1.035-7.414-.305-3.24.721-8.541 4.615-12.819 2.711-2.977 7.887-6.526 17.152-6.526 9.264 0 14.44 3.548 17.15 6.524 3.895 4.277 4.922 9.579 4.618 12.82-.246 2.606-.739 5.681-1.035 7.415.79.969 1.562 2.542 1.562 4.989v.094l-.007.094c-.403 5.352-1.932 7.123-4.269 8.245l-.24.114-.037.166c-1.001 5.405-2.8 7.445-4.113 8.935-.868.984-1.102 1.249-1.102 2.452 0 5.932 1.966 9.128 14.147 13.569 21.44 7.815 21.44 12.635 21.44 14.218v12.713h-96.228z"/><path fill="#fff" d="M76.722 46.597c16.605 0 19.719 11.979 19.284 16.616-.351 3.723-1.245 8.557-1.245 8.557s1.761.812 1.761 4.08c-.618 8.199-3.844 4.666-4.511 8.257-1.603 8.658-5.256 7.114-5.256 11.842 0 7.876 3.824 11.552 15.788 15.913 12.002 4.375 19.8 8.834 19.8 11.874v10.218h-91.24v-10.218c0-3.04 7.797-7.499 19.799-11.874 11.964-4.361 15.786-8.037 15.786-15.913 0-4.728-3.651-3.184-5.256-11.842-.666-3.591-3.892-.058-4.508-8.257 0-3.268 1.761-4.08 1.761-4.08s-.895-4.834-1.245-8.557c-.438-4.637 2.677-16.616 19.282-16.616m0-4.991c-10.177 0-15.948 3.993-18.998 7.342-4.442 4.879-5.606 10.986-5.254 14.732.209 2.217.59 4.755.888 6.571-.8 1.313-1.425 3.13-1.425 5.599v.187l.014.187c.383 5.107 1.79 8.041 4.787 9.833 1.068 4.888 2.796 7.173 4.485 9.09.157.177.36.408.468.546l.01.256c0 4.257-.581 6.878-12.504 11.224-20.338 7.414-23.08 12.533-23.08 16.563v15.209h101.22099999999999v-15.209c0-4.03-2.742-9.149-23.082-16.563-11.925-4.347-12.506-6.967-12.506-11.224l.01-.255c.108-.138.311-.369.468-.546 1.69-1.917 3.419-4.202 4.486-9.09 2.998-1.792 4.405-4.726 4.79-9.832l.014-.188v-.188c0-2.469-.626-4.286-1.425-5.599.297-1.814.679-4.352.888-6.569.352-3.75-.815-9.857-5.257-14.736-3.052-3.348-8.823-7.34-18.998-7.34z"/><path fill="#821724" d="M66.95 137.056v-15.81c0-1.969 0-7.963 26.663-17.683 15.147-5.52 17.592-9.495 17.592-16.874 0-1.497-.291-1.826-1.37-3.05-1.633-1.853-3.869-4.389-5.116-11.111l-.045-.201-.299-.147c-2.905-1.396-4.805-3.599-5.306-10.254l-.008-.116v-.116c0-3.042.959-4.999 1.942-6.205-.369-2.156-.982-5.981-1.288-9.22-.379-4.03.897-10.623 5.74-15.941 3.371-3.703 9.808-8.116 21.331-8.116 11.521 0 17.958 4.412 21.329 8.113 4.843 5.318 6.121 11.912 5.744 15.942-.306 3.24-.919 7.065-1.288 9.222.983 1.206 1.942 3.162 1.942 6.205v.117l-.009.117c-.501 6.655-2.403 8.857-5.309 10.253l-.299.147-.045.201c-1.245 6.723-3.482 9.259-5.116 11.111-1.079 1.224-1.37 1.553-1.37 3.049 0 7.378 2.445 11.353 17.594 16.874 26.664 9.72 26.664 15.713 26.664 17.683v15.81h-119.673z"/><path fill="#fff" d="M126.786 25.315c20.651 0 24.522 14.896 23.982 20.663-.437 4.629-1.549 10.642-1.549 10.642s2.19 1.011 2.19 5.074c-.769 10.196-4.782 5.803-5.61 10.269-1.994 10.768-6.537 8.847-6.537 14.727 0 9.794 4.756 14.367 19.634 19.789 14.926 5.441 24.623 10.986 24.623 14.768v12.707h-113.46600000000001v-12.707s9.697-9.326 24.623-14.768c14.879-5.422 19.632-9.995 19.632-19.789 0-5.88-4.541-3.959-6.537-14.727-.829-4.466-4.84-.072-5.606-10.269 0-4.063 2.19-5.074 2.19-5.074s-1.112-6.013-1.549-10.642c-.543-5.766 3.33-20.663 23.98-20.663m0-6.206c-12.657 0-19.834 4.965-23.626 9.13-5.524 6.068-6.973 13.661-6.535 18.32.262 2.773.74 5.95 1.11 8.21-1.052 1.759-1.779 4.065-1.779 6.925v.233l.018.232c.477 6.351 2.227 10 5.954 12.228 1.328 6.08 3.478 8.921 5.579 11.305.195.221.447.507.582.679l.012.318c0 5.295-.722 8.554-15.55 13.958-25.294 9.221-28.704 15.588-28.704 20.599v18.914h125.881v-18.914c0-5.012-3.41-11.378-28.704-20.599-14.832-5.405-15.554-8.664-15.554-13.958l.012-.318c.134-.171.387-.458.582-.679 2.102-2.383 4.252-5.226 5.579-11.306 3.728-2.228 5.478-5.876 5.957-12.227l.018-.233v-.233c0-2.151-.512-4.749-1.777-6.935.371-2.259.848-5.43 1.109-8.198.437-4.664-1.014-12.259-6.539-18.325-3.794-4.163-10.971-9.126-23.625-9.126z"/><path fill="#AB1F2F" d="M116.823 137.573v-18.442c0-2.297 0-9.288 31.099-20.624 17.668-6.44 20.519-11.076 20.519-19.681 0-1.747-.338-2.131-1.598-3.559-1.904-2.16-4.513-5.119-5.967-12.958l-.052-.234-.349-.171c-3.388-1.629-5.604-4.198-6.188-11.961l-.01-.135v-.136c0-3.548 1.119-5.83 2.265-7.236-.43-2.515-1.146-6.977-1.502-10.754-.442-4.701 1.047-12.391 6.696-18.595 3.932-4.318 11.44-9.466 24.879-9.466 13.438 0 20.946 5.146 24.877 9.464 5.649 6.204 7.139 13.894 6.699 18.595-.356 3.779-1.071 8.24-1.501 10.756 1.146 1.406 2.265 3.688 2.265 7.236v.136l-.01.136c-.584 7.763-2.802 10.332-6.191 11.96l-.349.171-.052.233c-1.452 7.841-4.061 10.8-5.966 12.96-1.259 1.428-1.598 1.812-1.598 3.558 0 8.604 2.852 13.24 20.521 19.681 31.1 11.335 31.1 18.326 31.1 20.624v18.442h-139.587z"/><path fill="#fff" d="M186.615 7.239c24.087 0 28.603 17.376 27.972 24.102-.508 5.398-1.806 12.412-1.806 12.412s2.554 1.178 2.554 5.918c-.896 11.894-5.577 6.769-6.542 11.978-2.325 12.559-7.625 10.318-7.625 17.178 0 11.422 5.546 16.756 22.901 23.082 17.41 6.346 28.72 12.813 28.72 17.223v14.822h-132.347v-14.822c0-4.409 11.31-10.877 28.719-17.223 17.355-6.326 22.899-11.66 22.899-23.082 0-6.859-5.296-4.619-7.625-17.178-.966-5.209-5.646-.084-6.539-11.978 0-4.74 2.554-5.918 2.554-5.918s-1.297-7.014-1.807-12.412c-.631-6.726 3.886-24.102 27.972-24.102m0-7.239c-14.762 0-23.133 5.791-27.556 10.649-6.443 7.077-8.133 15.934-7.623 21.369.304 3.217.857 6.898 1.288 9.532-1.159 1.905-2.067 4.54-2.067 8.121v.271l.021.271c.556 7.408 2.596 11.664 6.943 14.263 1.549 7.091 4.056 10.405 6.507 13.185.227.258.522.593.678.793l.015.373c0 6.175-.842 9.976-18.139 16.281-29.501 10.753-33.479 18.179-33.479 24.024v22.061h146.82500000000002v-22.061c0-5.846-3.978-13.271-33.48-24.024-17.298-6.307-18.14-10.108-18.14-16.282l.015-.372c.156-.2.451-.535.678-.792 2.452-2.78 4.959-6.096 6.507-13.186 4.348-2.6 6.389-6.855 6.947-14.262l.021-.271v-.272c0-3.582-.907-6.216-2.067-8.121.431-2.633.984-6.315 1.287-9.53.509-5.439-1.182-14.297-7.626-21.373-4.424-4.857-12.795-10.647-27.555-10.647z"/></svg>