<svg baseProfile="basic" xmlns="http://www.w3.org/2000/svg" width="960" height="560"><rect fill="#fff" width="960" height="560"/><g opacity=".5"><circle stroke="#BAA975" stroke-dasharray="8,8" cx="438.511" cy="282.916" r="273.712" fill="none"/><g fill="#D0D1D2"><path d="M409.413 104.291c-14.83 0-22.586-5.831-23.268-17.491h9.665c.067 6.615 4.568 9.921 13.501 9.921 3.988 0 7.032-.826 9.129-2.48 2.096-1.653 3.145-3.725 3.145-6.213 0-2.455-1.022-4.185-3.068-5.191-2.045-1.005-6.264-2.309-12.656-3.913-6.394-1.602-11.064-3.392-14.014-5.37-2.949-1.977-4.423-5.455-4.423-10.433 0-4.5 1.832-8.225 5.497-11.174s8.566-4.424 14.703-4.424c14.217 0 21.479 5.063 21.785 15.189h-9.613c-.342-5.114-4.178-7.671-11.508-7.671-3.238 0-5.924.614-8.054 1.841-2.132 1.228-3.196 3.018-3.196 5.37 0 2.114.818 3.64 2.455 4.577 1.637.938 5.735 2.2 12.299 3.784 6.562 1.586 11.438 3.436 14.626 5.549 3.188 2.114 4.782 5.762 4.782 10.944 0 4.944-1.969 9.044-5.907 12.299-3.938 3.258-9.231 4.886-15.88 4.886z"/><path d="M463.47 103.114c-2.115.409-4.416.613-6.904.613-3.955 0-6.853-.708-8.693-2.123-1.842-1.415-2.984-3.23-3.427-5.447-.444-2.215-.665-5.233-.665-9.052v-30.785h-6.699v-7.569h6.699v-13.501h9.614v13.501h8.796v7.569h-8.796v31.298c0 3.717.468 6.078 1.406 7.083.938 1.006 2.226 1.508 3.861 1.508 1.671 0 3.272-.136 4.808-.409v7.314z"/><path d="M499.677 57.547c-1.364-.409-3.324-.614-5.881-.614-4.91 0-9.121 2.575-12.633 7.722v38.356h-9.665v-54.26h9.665v7.569c4.058-5.864 8.762-8.796 14.115-8.796 1.363 0 2.83.137 4.398.409v9.614z"/><path d="M540.742 97.438c-4.909 4.569-11.233 6.853-18.974 6.853-5.387 0-9.818-1.458-13.295-4.373-3.479-2.916-5.217-6.674-5.217-11.277 0-12.683 10.926-19.024 32.78-19.024h4.705c0-3.887-.204-6.708-.614-8.464-.408-1.755-1.551-3.213-3.426-4.373-1.875-1.158-4.857-1.739-8.949-1.739-8.592 0-13.024 3.069-13.297 9.206h-9.614c.716-11.148 8.522-16.723 23.423-16.723 6.955 0 12.375 1.381 16.262 4.143 3.887 2.761 5.83 8.183 5.83 16.263v35.083h-9.614v-5.575zm0-8.694v-12.019h-6.597c-13.979 0-20.969 3.803-20.969 11.405 0 2.762 1.023 4.884 3.069 6.367s4.808 2.224 8.284 2.224c3.172 0 6.239-.715 9.205-2.147 2.968-1.432 5.302-3.376 7.008-5.83z"/><path d="M585.694 103.114c-2.113.409-4.415.613-6.903.613-3.956 0-6.853-.708-8.694-2.123-1.841-1.415-2.982-3.23-3.426-5.447-.443-2.215-.665-5.233-.665-9.052v-30.785h-6.699v-7.569h6.699v-13.501h9.614v13.501h8.797v7.569h-8.797v31.298c0 3.717.469 6.078 1.406 7.083.938 1.006 2.225 1.508 3.861 1.508 1.67 0 3.273-.136 4.807-.409v7.314z"/><path d="M616.788 104.291c-7.978 0-14.389-2.498-19.229-7.493-4.842-4.993-7.262-11.958-7.262-20.891 0-8.864 2.344-15.81 7.031-20.839 4.688-5.029 10.816-7.543 18.386-7.543 7.738 0 13.917 2.473 18.538 7.416 4.619 4.944 6.93 11.933 6.93 20.967v2.302h-40.861c.41 6.274 2.139 10.928 5.19 13.961 3.051 3.035 6.81 4.551 11.276 4.551 3.375 0 6.418-.86 9.129-2.582 2.711-1.721 4.134-4.168 4.271-7.339h9.972c-.75 5.592-3.281 9.904-7.594 12.938-4.313 3.034-9.572 4.552-15.777 4.552zm14.217-33.652c-.784-5.216-2.539-9.12-5.268-11.711-2.727-2.59-6.068-3.887-10.022-3.887-3.854 0-7.159 1.288-9.922 3.861-2.761 2.575-4.518 6.487-5.267 11.737h30.479z"/><path d="M695.953 98.818c0 17.456-7.876 26.184-23.627 26.184-6.819 0-12.196-1.484-16.135-4.449-3.938-2.967-5.907-6.955-5.907-11.967h9.973c0 5.933 3.99 8.898 11.967 8.898 4.501 0 7.979-1.236 10.434-3.707 2.454-2.473 3.682-7.322 3.682-14.55v-2.71c-4.295 5.183-9.461 7.774-15.496 7.774-7.091 0-12.58-2.523-16.467-7.57-3.887-5.045-5.83-11.847-5.83-20.405 0-8.864 2.174-15.879 6.521-21.044 4.346-5.166 9.81-7.748 16.39-7.748 5.863 0 10.825 1.808 14.882 5.421v-4.193h9.614v50.066zm-9.614-11.404v-25.775c-4.16-4.398-8.916-6.598-14.268-6.598-4.127 0-7.424 1.782-9.896 5.345-2.472 3.563-3.707 8.873-3.707 15.93 0 6.683 1.167 11.754 3.503 15.214 2.335 3.461 5.565 5.19 9.69 5.19 5.387.001 10.279-3.1 14.678-9.306z"/><path d="M713.29 116.104c4.773 0 8.676-4.364 11.711-13.092l-20.508-54.261h10.434l14.37 42.447 14.37-42.447h10.434l-20.508 54.261c-1.978 5.182-3.656 9.18-5.037 11.993s-3.188 5.182-5.421 7.107c-2.233 1.926-4.97 2.89-8.208 2.89-2.422 0-4.5-.24-6.239-.716v-8.898c1.5.477 3.034.716 4.602.716z"/></g><circle stroke="#C42031" stroke-width="3" stroke-miterlimit="10" cx="231.228" cy="86.877" r="50.635" fill="none"/><line stroke="#231F20" stroke-width="2" x1="444.9" y1="458" y2="458" fill="none"/><circle fill-rule="evenodd" clip-rule="evenodd" fill="#231F20" cx="441.41" cy="458.002" r="5.199"/><g stroke="#D0D1D2" stroke-miterlimit="10" fill="none"><path d="M238.484 273.64h-14.514v-109.116h14.514v109.116z"/><path d="M276.742 204.717c6.994-7.891 14.86-11.836 23.596-11.836 17.813 0 26.721 9.701 26.721 29.104v51.654h-14.066v-51.062c0-6.447-1.154-11.09-3.462-13.918-2.309-2.827-6.095-4.242-11.353-4.242-7.143 0-14.29 4.219-21.436 12.656v56.566h-14.07v-78.973h14.07v10.051z"/><path d="M397.469 264.187c-6.252 7.543-13.768 11.314-22.553 11.314-10.32 0-18.307-3.674-23.965-11.018-5.659-7.344-8.486-17.24-8.486-29.699 0-12.898 3.162-23.109 9.49-30.625 6.328-7.52 14.279-11.278 23.854-11.278 8.535 0 15.756 2.632 21.66 7.89v-36.247h13.996v109.116h-13.996v-9.453zm0-13.25v-37.512c-6.053-6.402-12.975-9.602-20.766-9.602-6.002 0-10.803 2.59-14.402 7.78-3.596 5.182-5.398 12.912-5.398 23.182 0 9.729 1.703 17.109 5.104 22.146 3.398 5.035 8.098 7.553 14.102 7.553 7.84-.001 14.961-4.516 21.36-13.547z"/><path d="M446.299 179.708h-14.066v-15.184h14.066v15.184zm0 93.932h-14.066v-78.973h14.066v78.973z"/><path d="M531 267.538c0 25.405-11.461 38.107-34.389 38.107-9.922 0-17.75-2.16-23.482-6.475-5.73-4.317-8.596-10.122-8.596-17.415h14.514c0 8.633 5.805 12.947 17.416 12.947 6.553 0 11.611-1.801 15.188-5.393 3.572-3.6 5.354-10.659 5.354-21.181v-3.943c-6.248 7.543-13.768 11.314-22.553 11.314-10.316 0-18.307-3.674-23.965-11.018-5.656-7.344-8.482-17.24-8.482-29.699 0-12.898 3.162-23.109 9.486-30.625 6.33-7.52 14.281-11.278 23.857-11.278 8.535 0 15.752 2.632 21.656 7.89v-6.104h13.996v72.873zm-13.996-16.601v-37.512c-6.053-6.402-12.971-9.602-20.762-9.602-6.006 0-10.805 2.59-14.404 7.78-3.598 5.182-5.396 12.912-5.396 23.182 0 9.729 1.701 17.109 5.1 22.146 3.398 5.035 8.1 7.553 14.105 7.553 7.837-.001 14.958-4.516 21.357-13.547z"/><path d="M583.771 192.881c11.266 0 20.26 3.599 26.982 10.792 6.723 7.198 10.088 17.372 10.088 30.518 0 13.1-3.365 23.262-10.088 30.48-6.723 7.221-15.717 10.83-26.982 10.83-11.215 0-20.184-3.609-26.904-10.83-6.725-7.219-10.086-17.381-10.086-30.48 0-13.146 3.361-23.32 10.086-30.518 6.721-7.193 15.69-10.792 26.904-10.792zm0 71.602c6.701 0 12.135-2.541 16.301-7.629 4.172-5.088 6.252-12.641 6.252-22.664 0-10.07-2.08-17.652-6.252-22.738-4.166-5.088-9.6-7.629-16.301-7.629-6.697 0-12.133 2.542-16.299 7.629-4.166 5.086-6.254 12.668-6.254 22.738 0 10.023 2.088 17.576 6.254 22.664s9.602 7.629 16.299 7.629z"/></g></g></svg>