<svg baseProfile="basic" xmlns="http://www.w3.org/2000/svg" width="165.651" height="166.119"><path fill="#fff" d="M138.801 4c3.656 0 7.313 1.387 10.088 4.159l8.6 8.601c5.549 5.546 5.551 14.652.002 20.202l-15.256 15.286-7.028 7.083-89.912 90.032-36.418 12.343c-.835.278-1.585.413-2.232.413-2.236 0-3.241-1.568-2.278-4.455l1.628-3.99h.003l10.518-32.404 89.912-90.802 7.154-7.163 15.131-15.137c2.774-2.775 6.431-4.168 10.088-4.168m0-4c-4.891 0-9.479 1.895-12.917 5.334l-15.131 15.132-7.153 7.15-89.927 90.794-.668.675-.294.903-10.462 32.192-1.591 3.942-.046.114-.039.117c-1.185 3.554-.309 5.86.634 7.17 1.207 1.674 3.138 2.596 5.438 2.596 1.089 0 2.266-.208 3.497-.618l36.437-12.35.885-.3.661-.662 89.912-90.032 7.038-7.092 15.248-15.278c3.437-3.437 5.33-8.029 5.33-12.929 0-4.898-1.896-9.49-5.335-12.928l-8.599-8.6c-3.442-3.437-8.029-5.33-12.918-5.33z"/><path fill="#AB1F2F" d="M8.877 161.281c-3.722 1.239-5.752-.79-4.511-4.513l12.148-36.394h4.741l24.298 24.913-.26 3.862-36.416 12.132z"/><path d="M157.491 36.935c5.549-5.549 5.547-14.629-.002-20.175l-8.6-8.601c-5.55-5.546-14.629-5.546-20.177.003l-15.131 15.132 28.653 28.9 15.257-15.259z"/><rect x="55.512" y="26.217" transform="matrix(-.707 -.707 .707 -.707 66.013 206.939)" fill="#400C11" width="40.697" height="127.165"/><polygon fill="#C42031" points="113.582,23.294 106.427,30.445 135.207,59.224 142.235,52.194"/><path d="M12.165 153.082c2.118 1.735 2.229 6.359 2.229 6.359l-5.516 1.84c-3.722 1.239-5.752-.79-4.511-4.513l1.628-4.885c0 .001 4.051-.534 6.17 1.199z"/></svg>