<svg baseProfile="basic" xmlns="http://www.w3.org/2000/svg" width="145.241" height="144.693"><path d="M86.361 51.142c-2.128-2.127-2.127-5.609 0-7.736l27.416-27.415c2.127-2.128 5.608-2.127 7.736 0l7.736 7.736c2.128 2.127 2.128 5.609 0 7.736l-27.416 27.416c-2.128 2.127-5.608 2.127-7.736 0l-7.736-7.737z"/><path d="M104.828 14.829c-2.128-2.127-1.49-4.505 1.416-5.283l34.942-9.36c2.906-.778 4.647.963 3.868 3.869l-9.36 34.942c-.779 2.906-3.156 3.543-5.284 1.416l-25.582-25.584z"/><path fill="#C42031" d="M93.551 85.812c2.128-2.127 5.608-2.127 7.736 0l27.416 27.417c2.128 2.127 2.128 5.609 0 7.736l-7.737 7.737c-2.127 2.127-5.609 2.127-7.736 0l-27.415-27.416c-2.128-2.127-2.128-5.609 0-7.736l7.736-7.738z"/><path fill="#C42031" d="M129.863 104.28c2.127-2.127 4.505-1.49 5.284 1.416l9.359 34.942c.779 2.906-.962 4.647-3.868 3.868l-34.943-9.359c-2.906-.779-3.543-3.156-1.416-5.284l25.584-25.583z"/><path fill="#C42031" d="M58.88 51.142c2.127-2.127 2.127-5.609 0-7.736l-27.417-27.416c-2.127-2.128-5.608-2.127-7.736 0l-7.736 7.736c-2.128 2.127-2.128 5.609 0 7.736l27.416 27.416c2.128 2.127 5.608 2.127 7.736 0l7.737-7.736z"/><path fill="#C42031" d="M40.412 14.829c2.128-2.127 1.49-4.505-1.416-5.283l-34.941-9.36c-2.907-.779-4.648.962-3.868 3.869l9.359 34.942c.779 2.906 3.156 3.543 5.284 1.416l25.582-25.584z"/><path d="M51.689 85.812c-2.128-2.127-5.608-2.127-7.736 0l-27.416 27.417c-2.128 2.127-2.128 5.609 0 7.736l7.737 7.737c2.127 2.127 5.609 2.127 7.736 0l27.415-27.416c2.128-2.127 2.128-5.609 0-7.736l-7.736-7.738z"/><path d="M15.377 104.28c-2.127-2.127-4.505-1.49-5.284 1.416l-9.359 34.942c-.779 2.906.962 4.647 3.868 3.868l34.943-9.359c2.906-.779 3.543-3.156 1.416-5.284l-25.584-25.583z"/></svg>